<mxfile host="app.diagrams.net" agent="Mozilla/5.0 (Windows NT 10.0; Win64; x64) AppleWebKit/537.36 (KHTML, like Gecko) Chrome/131.0.0.0 Safari/537.36" version="26.0.6" pages="4">
  <diagram name="B1" id="zpCik31E417IOR1Sh6Vr">
    <mxGraphModel dx="819" dy="432" grid="1" gridSize="10" guides="1" tooltips="1" connect="1" arrows="1" fold="1" page="1" pageScale="1" pageWidth="827" pageHeight="1169" math="0" shadow="0">
      <root>
        <mxCell id="0" />
        <mxCell id="1" parent="0" />
        <mxCell id="oKpEDtoE4fxE1_seGVtB-1" value="System" style="swimlane;whiteSpace=wrap;html=1;" vertex="1" parent="1">
          <mxGeometry x="210" y="40" width="430" height="520" as="geometry" />
        </mxCell>
        <mxCell id="PRYGXUhGiGIfflIAg9ib-19" value="&amp;lt;&amp;lt;include&amp;gt;&amp;gt;" style="rounded=0;orthogonalLoop=1;jettySize=auto;html=1;entryX=0;entryY=0.5;entryDx=0;entryDy=0;dashed=1;" edge="1" parent="oKpEDtoE4fxE1_seGVtB-1" source="PRYGXUhGiGIfflIAg9ib-7" target="PRYGXUhGiGIfflIAg9ib-17">
          <mxGeometry relative="1" as="geometry" />
        </mxCell>
        <mxCell id="PRYGXUhGiGIfflIAg9ib-7" value="Login" style="ellipse;whiteSpace=wrap;html=1;" vertex="1" parent="oKpEDtoE4fxE1_seGVtB-1">
          <mxGeometry x="120" y="90" width="70" height="40" as="geometry" />
        </mxCell>
        <mxCell id="PRYGXUhGiGIfflIAg9ib-8" value="Registration" style="ellipse;whiteSpace=wrap;html=1;" vertex="1" parent="oKpEDtoE4fxE1_seGVtB-1">
          <mxGeometry x="60" y="295" width="70" height="40" as="geometry" />
        </mxCell>
        <mxCell id="PRYGXUhGiGIfflIAg9ib-22" value="&amp;lt;&amp;lt;include&amp;gt;&amp;gt;" style="rounded=0;orthogonalLoop=1;jettySize=auto;html=1;entryX=0;entryY=0.5;entryDx=0;entryDy=0;dashed=1;" edge="1" parent="oKpEDtoE4fxE1_seGVtB-1" source="PRYGXUhGiGIfflIAg9ib-11" target="PRYGXUhGiGIfflIAg9ib-21">
          <mxGeometry relative="1" as="geometry" />
        </mxCell>
        <mxCell id="PRYGXUhGiGIfflIAg9ib-11" value="Make a reservation" style="ellipse;whiteSpace=wrap;html=1;" vertex="1" parent="oKpEDtoE4fxE1_seGVtB-1">
          <mxGeometry x="100" y="150" width="75" height="40" as="geometry" />
        </mxCell>
        <mxCell id="PRYGXUhGiGIfflIAg9ib-13" value="Reset password" style="ellipse;whiteSpace=wrap;html=1;" vertex="1" parent="oKpEDtoE4fxE1_seGVtB-1">
          <mxGeometry x="245" y="30" width="75" height="40" as="geometry" />
        </mxCell>
        <mxCell id="PRYGXUhGiGIfflIAg9ib-15" value="Change/cancel reservation" style="ellipse;whiteSpace=wrap;html=1;" vertex="1" parent="oKpEDtoE4fxE1_seGVtB-1">
          <mxGeometry x="60" y="220" width="105" height="40" as="geometry" />
        </mxCell>
        <mxCell id="PRYGXUhGiGIfflIAg9ib-17" value="Check authentication" style="ellipse;whiteSpace=wrap;html=1;" vertex="1" parent="oKpEDtoE4fxE1_seGVtB-1">
          <mxGeometry x="300" y="80" width="90" height="50" as="geometry" />
        </mxCell>
        <mxCell id="PRYGXUhGiGIfflIAg9ib-21" value="Check vehicle availability" style="ellipse;whiteSpace=wrap;html=1;" vertex="1" parent="oKpEDtoE4fxE1_seGVtB-1">
          <mxGeometry x="320" y="150" width="102.5" height="40" as="geometry" />
        </mxCell>
        <mxCell id="PRYGXUhGiGIfflIAg9ib-23" value="&amp;lt;&amp;lt;include&amp;gt;&amp;gt;" style="rounded=0;orthogonalLoop=1;jettySize=auto;html=1;entryX=0;entryY=0.5;entryDx=0;entryDy=0;dashed=1;exitX=0.968;exitY=0.8;exitDx=0;exitDy=0;exitPerimeter=0;" edge="1" parent="oKpEDtoE4fxE1_seGVtB-1" target="PRYGXUhGiGIfflIAg9ib-24" source="PRYGXUhGiGIfflIAg9ib-11">
          <mxGeometry relative="1" as="geometry">
            <mxPoint x="190" y="190" as="sourcePoint" />
          </mxGeometry>
        </mxCell>
        <mxCell id="PRYGXUhGiGIfflIAg9ib-24" value="Send confirmation e-mail" style="ellipse;whiteSpace=wrap;html=1;" vertex="1" parent="oKpEDtoE4fxE1_seGVtB-1">
          <mxGeometry x="320" y="220" width="102.5" height="50" as="geometry" />
        </mxCell>
        <mxCell id="PRYGXUhGiGIfflIAg9ib-27" style="rounded=0;orthogonalLoop=1;jettySize=auto;html=1;dashed=1;entryX=1;entryY=1;entryDx=0;entryDy=0;" edge="1" parent="oKpEDtoE4fxE1_seGVtB-1" source="PRYGXUhGiGIfflIAg9ib-26" target="PRYGXUhGiGIfflIAg9ib-11">
          <mxGeometry relative="1" as="geometry">
            <mxPoint x="190" y="140" as="targetPoint" />
          </mxGeometry>
        </mxCell>
        <mxCell id="PRYGXUhGiGIfflIAg9ib-28" value="&amp;lt;&amp;lt;extend&amp;gt;&amp;gt;" style="edgeLabel;html=1;align=center;verticalAlign=middle;resizable=0;points=[];" vertex="1" connectable="0" parent="PRYGXUhGiGIfflIAg9ib-27">
          <mxGeometry x="-0.1037" y="-2" relative="1" as="geometry">
            <mxPoint as="offset" />
          </mxGeometry>
        </mxCell>
        <mxCell id="PRYGXUhGiGIfflIAg9ib-26" value="Suggest alternatives" style="ellipse;whiteSpace=wrap;html=1;" vertex="1" parent="oKpEDtoE4fxE1_seGVtB-1">
          <mxGeometry x="260" y="290" width="102.5" height="50" as="geometry" />
        </mxCell>
        <mxCell id="PRYGXUhGiGIfflIAg9ib-30" style="rounded=0;orthogonalLoop=1;jettySize=auto;html=1;dashed=1;entryX=0.5;entryY=0;entryDx=0;entryDy=0;exitX=0;exitY=0.5;exitDx=0;exitDy=0;" edge="1" parent="oKpEDtoE4fxE1_seGVtB-1" source="PRYGXUhGiGIfflIAg9ib-13" target="PRYGXUhGiGIfflIAg9ib-7">
          <mxGeometry relative="1" as="geometry">
            <mxPoint x="410" y="-40" as="targetPoint" />
            <mxPoint x="523" y="98" as="sourcePoint" />
          </mxGeometry>
        </mxCell>
        <mxCell id="PRYGXUhGiGIfflIAg9ib-31" value="&amp;lt;&amp;lt;extend&amp;gt;&amp;gt;" style="edgeLabel;html=1;align=center;verticalAlign=middle;resizable=0;points=[];" vertex="1" connectable="0" parent="PRYGXUhGiGIfflIAg9ib-30">
          <mxGeometry x="-0.1037" y="-2" relative="1" as="geometry">
            <mxPoint as="offset" />
          </mxGeometry>
        </mxCell>
        <mxCell id="PRYGXUhGiGIfflIAg9ib-9" style="rounded=0;orthogonalLoop=1;jettySize=auto;html=1;entryX=0;entryY=0.5;entryDx=0;entryDy=0;" edge="1" parent="1" source="PRYGXUhGiGIfflIAg9ib-1" target="PRYGXUhGiGIfflIAg9ib-7">
          <mxGeometry relative="1" as="geometry" />
        </mxCell>
        <mxCell id="PRYGXUhGiGIfflIAg9ib-12" style="rounded=0;orthogonalLoop=1;jettySize=auto;html=1;entryX=0;entryY=0.5;entryDx=0;entryDy=0;" edge="1" parent="1" source="PRYGXUhGiGIfflIAg9ib-1" target="PRYGXUhGiGIfflIAg9ib-11">
          <mxGeometry relative="1" as="geometry" />
        </mxCell>
        <mxCell id="PRYGXUhGiGIfflIAg9ib-16" style="rounded=0;orthogonalLoop=1;jettySize=auto;html=1;entryX=0;entryY=0.5;entryDx=0;entryDy=0;" edge="1" parent="1" source="PRYGXUhGiGIfflIAg9ib-1" target="PRYGXUhGiGIfflIAg9ib-15">
          <mxGeometry relative="1" as="geometry" />
        </mxCell>
        <mxCell id="PRYGXUhGiGIfflIAg9ib-1" value="Customer" style="shape=umlActor;verticalLabelPosition=bottom;verticalAlign=top;html=1;outlineConnect=0;" vertex="1" parent="1">
          <mxGeometry x="110" y="170" width="30" height="60" as="geometry" />
        </mxCell>
        <mxCell id="PRYGXUhGiGIfflIAg9ib-10" style="rounded=0;orthogonalLoop=1;jettySize=auto;html=1;entryX=0;entryY=0.5;entryDx=0;entryDy=0;" edge="1" parent="1" source="PRYGXUhGiGIfflIAg9ib-6" target="PRYGXUhGiGIfflIAg9ib-8">
          <mxGeometry relative="1" as="geometry" />
        </mxCell>
        <mxCell id="PRYGXUhGiGIfflIAg9ib-25" style="edgeStyle=orthogonalEdgeStyle;rounded=0;orthogonalLoop=1;jettySize=auto;html=1;" edge="1" parent="1" source="PRYGXUhGiGIfflIAg9ib-6" target="PRYGXUhGiGIfflIAg9ib-1">
          <mxGeometry relative="1" as="geometry" />
        </mxCell>
        <mxCell id="PRYGXUhGiGIfflIAg9ib-6" value="New Customer" style="shape=umlActor;verticalLabelPosition=bottom;verticalAlign=top;html=1;outlineConnect=0;" vertex="1" parent="1">
          <mxGeometry x="110" y="290" width="30" height="60" as="geometry" />
        </mxCell>
      </root>
    </mxGraphModel>
  </diagram>
  <diagram id="mKPmvJohtxatnSG4ikuw" name="B2">
    <mxGraphModel dx="819" dy="432" grid="1" gridSize="10" guides="1" tooltips="1" connect="1" arrows="1" fold="1" page="1" pageScale="1" pageWidth="827" pageHeight="1169" math="0" shadow="0">
      <root>
        <mxCell id="0" />
        <mxCell id="1" parent="0" />
        <mxCell id="g0lB2xuk9ypmjSMwhdOz-1" value="System" style="swimlane;whiteSpace=wrap;html=1;" vertex="1" parent="1">
          <mxGeometry x="290" y="140" width="450" height="430" as="geometry" />
        </mxCell>
        <mxCell id="nxXdaIbV925TyjfqpyJi-1" value="Show reservation data" style="ellipse;whiteSpace=wrap;html=1;" vertex="1" parent="g0lB2xuk9ypmjSMwhdOz-1">
          <mxGeometry x="100" y="80" width="110" height="40" as="geometry" />
        </mxCell>
        <mxCell id="nxXdaIbV925TyjfqpyJi-3" value="Check the identity of the driver" style="ellipse;whiteSpace=wrap;html=1;" vertex="1" parent="g0lB2xuk9ypmjSMwhdOz-1">
          <mxGeometry x="310" y="80" width="120" height="50" as="geometry" />
        </mxCell>
        <mxCell id="nxXdaIbV925TyjfqpyJi-5" value="Check vehicle availability" style="ellipse;whiteSpace=wrap;html=1;" vertex="1" parent="g0lB2xuk9ypmjSMwhdOz-1">
          <mxGeometry x="105" y="150" width="100" height="40" as="geometry" />
        </mxCell>
        <mxCell id="nxXdaIbV925TyjfqpyJi-7" value="Record vehicle-specific data" style="ellipse;whiteSpace=wrap;html=1;" vertex="1" parent="g0lB2xuk9ypmjSMwhdOz-1">
          <mxGeometry x="315" y="240" width="115" height="40" as="geometry" />
        </mxCell>
        <mxCell id="nxXdaIbV925TyjfqpyJi-9" value="Mietvertrag erzeugen" style="ellipse;whiteSpace=wrap;html=1;" vertex="1" parent="g0lB2xuk9ypmjSMwhdOz-1">
          <mxGeometry x="100" y="240" width="105" height="40" as="geometry" />
        </mxCell>
        <mxCell id="QPgn3a7L2EIwpq-IDAyX-1" value="&amp;lt;&amp;lt;include&amp;gt;&amp;gt;" style="rounded=0;orthogonalLoop=1;jettySize=auto;html=1;entryX=0;entryY=0.4;entryDx=0;entryDy=0;dashed=1;entryPerimeter=0;exitX=1;exitY=0.5;exitDx=0;exitDy=0;" edge="1" parent="g0lB2xuk9ypmjSMwhdOz-1" source="nxXdaIbV925TyjfqpyJi-1" target="nxXdaIbV925TyjfqpyJi-3">
          <mxGeometry relative="1" as="geometry">
            <mxPoint x="95" y="70" as="sourcePoint" />
            <mxPoint x="240" y="70" as="targetPoint" />
          </mxGeometry>
        </mxCell>
        <mxCell id="QPgn3a7L2EIwpq-IDAyX-2" value="Assign vehicle" style="ellipse;whiteSpace=wrap;html=1;" vertex="1" parent="g0lB2xuk9ypmjSMwhdOz-1">
          <mxGeometry x="315" y="160" width="110" height="30" as="geometry" />
        </mxCell>
        <mxCell id="QPgn3a7L2EIwpq-IDAyX-3" value="&amp;lt;&amp;lt;include&amp;gt;&amp;gt;" style="rounded=0;orthogonalLoop=1;jettySize=auto;html=1;entryX=0;entryY=0.4;entryDx=0;entryDy=0;dashed=1;entryPerimeter=0;exitX=1;exitY=0.5;exitDx=0;exitDy=0;" edge="1" parent="g0lB2xuk9ypmjSMwhdOz-1" target="QPgn3a7L2EIwpq-IDAyX-2" source="nxXdaIbV925TyjfqpyJi-5">
          <mxGeometry relative="1" as="geometry">
            <mxPoint x="205" y="170" as="sourcePoint" />
            <mxPoint x="235" y="140" as="targetPoint" />
          </mxGeometry>
        </mxCell>
        <mxCell id="QPgn3a7L2EIwpq-IDAyX-5" value="&amp;lt;&amp;lt;include&amp;gt;&amp;gt;" style="rounded=0;orthogonalLoop=1;jettySize=auto;html=1;entryX=0;entryY=0.5;entryDx=0;entryDy=0;dashed=1;exitX=1.012;exitY=0.393;exitDx=0;exitDy=0;exitPerimeter=0;" edge="1" parent="g0lB2xuk9ypmjSMwhdOz-1" source="nxXdaIbV925TyjfqpyJi-9" target="nxXdaIbV925TyjfqpyJi-7">
          <mxGeometry relative="1" as="geometry">
            <mxPoint x="215" y="180" as="sourcePoint" />
            <mxPoint x="340" y="180" as="targetPoint" />
          </mxGeometry>
        </mxCell>
        <mxCell id="c4VrhRtJp2OujD8dk2wO-1" style="rounded=0;orthogonalLoop=1;jettySize=auto;html=1;dashed=1;entryX=0.5;entryY=1;entryDx=0;entryDy=0;" edge="1" parent="g0lB2xuk9ypmjSMwhdOz-1" source="c4VrhRtJp2OujD8dk2wO-3" target="nxXdaIbV925TyjfqpyJi-5">
          <mxGeometry relative="1" as="geometry">
            <mxPoint x="155" y="146.92000000000002" as="targetPoint" />
          </mxGeometry>
        </mxCell>
        <mxCell id="c4VrhRtJp2OujD8dk2wO-2" value="&amp;lt;&amp;lt;extend&amp;gt;&amp;gt;" style="edgeLabel;html=1;align=center;verticalAlign=middle;resizable=0;points=[];" vertex="1" connectable="0" parent="c4VrhRtJp2OujD8dk2wO-1">
          <mxGeometry x="-0.1037" y="-2" relative="1" as="geometry">
            <mxPoint as="offset" />
          </mxGeometry>
        </mxCell>
        <mxCell id="c4VrhRtJp2OujD8dk2wO-3" value="Offer an alternative vehicle" style="ellipse;whiteSpace=wrap;html=1;" vertex="1" parent="g0lB2xuk9ypmjSMwhdOz-1">
          <mxGeometry x="230" y="198.56" width="120" height="41.44" as="geometry" />
        </mxCell>
        <mxCell id="nxXdaIbV925TyjfqpyJi-2" style="rounded=0;orthogonalLoop=1;jettySize=auto;html=1;entryX=0;entryY=0.5;entryDx=0;entryDy=0;" edge="1" parent="1" source="g0lB2xuk9ypmjSMwhdOz-2" target="nxXdaIbV925TyjfqpyJi-1">
          <mxGeometry relative="1" as="geometry" />
        </mxCell>
        <mxCell id="nxXdaIbV925TyjfqpyJi-6" style="rounded=0;orthogonalLoop=1;jettySize=auto;html=1;entryX=0;entryY=0.5;entryDx=0;entryDy=0;" edge="1" parent="1" source="g0lB2xuk9ypmjSMwhdOz-2" target="nxXdaIbV925TyjfqpyJi-5">
          <mxGeometry relative="1" as="geometry" />
        </mxCell>
        <mxCell id="nxXdaIbV925TyjfqpyJi-10" style="rounded=0;orthogonalLoop=1;jettySize=auto;html=1;entryX=0;entryY=0.5;entryDx=0;entryDy=0;" edge="1" parent="1" source="g0lB2xuk9ypmjSMwhdOz-2" target="nxXdaIbV925TyjfqpyJi-9">
          <mxGeometry relative="1" as="geometry" />
        </mxCell>
        <mxCell id="g0lB2xuk9ypmjSMwhdOz-2" value="Pick-up station employee" style="shape=umlActor;verticalLabelPosition=bottom;verticalAlign=top;html=1;outlineConnect=0;" vertex="1" parent="1">
          <mxGeometry x="200" y="300" width="30" height="60" as="geometry" />
        </mxCell>
      </root>
    </mxGraphModel>
  </diagram>
  <diagram id="k1IehaSWZrMEWVFRn1LH" name="B3">
    <mxGraphModel dx="989" dy="521" grid="1" gridSize="10" guides="1" tooltips="1" connect="1" arrows="1" fold="1" page="1" pageScale="1" pageWidth="827" pageHeight="1169" math="0" shadow="0">
      <root>
        <mxCell id="0" />
        <mxCell id="1" parent="0" />
        <mxCell id="Nm5P_6A96gV4nLZBbPhE-1" value="System" style="swimlane;whiteSpace=wrap;html=1;" vertex="1" parent="1">
          <mxGeometry x="280" y="250" width="350" height="470" as="geometry" />
        </mxCell>
        <mxCell id="K7nqZuAgdVPrMOTng4aN-1" value="Identify rental agreement" style="ellipse;whiteSpace=wrap;html=1;" vertex="1" parent="Nm5P_6A96gV4nLZBbPhE-1">
          <mxGeometry x="110" y="50" width="100" height="50" as="geometry" />
        </mxCell>
        <mxCell id="K7nqZuAgdVPrMOTng4aN-4" value="Generate return log" style="ellipse;whiteSpace=wrap;html=1;" vertex="1" parent="Nm5P_6A96gV4nLZBbPhE-1">
          <mxGeometry x="20" y="270" width="130" height="50" as="geometry" />
        </mxCell>
        <mxCell id="K7nqZuAgdVPrMOTng4aN-3" value="Enter vehicle condition and usage data" style="ellipse;whiteSpace=wrap;html=1;" vertex="1" parent="Nm5P_6A96gV4nLZBbPhE-1">
          <mxGeometry x="210" y="260" width="120" height="70" as="geometry" />
        </mxCell>
        <mxCell id="K7nqZuAgdVPrMOTng4aN-2" value="Show rental agreement dataanzeigen" style="ellipse;whiteSpace=wrap;html=1;" vertex="1" parent="Nm5P_6A96gV4nLZBbPhE-1">
          <mxGeometry x="100" y="110" width="120" height="70" as="geometry" />
        </mxCell>
        <mxCell id="GwmRRsnYJBy1LmMs6AIq-2" value="&amp;lt;&amp;lt;include&amp;gt;&amp;gt;" style="rounded=0;orthogonalLoop=1;jettySize=auto;html=1;entryX=1;entryY=1;entryDx=0;entryDy=0;dashed=1;exitX=0.5;exitY=0;exitDx=0;exitDy=0;" edge="1" parent="Nm5P_6A96gV4nLZBbPhE-1" source="K7nqZuAgdVPrMOTng4aN-3" target="K7nqZuAgdVPrMOTng4aN-2">
          <mxGeometry relative="1" as="geometry">
            <mxPoint x="226" y="156" as="sourcePoint" />
            <mxPoint x="335" y="160" as="targetPoint" />
          </mxGeometry>
        </mxCell>
        <mxCell id="GwmRRsnYJBy1LmMs6AIq-1" value="&amp;lt;&amp;lt;include&amp;gt;&amp;gt;" style="rounded=0;orthogonalLoop=1;jettySize=auto;html=1;entryX=0;entryY=1;entryDx=0;entryDy=0;dashed=1;exitX=0.5;exitY=0;exitDx=0;exitDy=0;" edge="1" parent="Nm5P_6A96gV4nLZBbPhE-1" source="K7nqZuAgdVPrMOTng4aN-4" target="K7nqZuAgdVPrMOTng4aN-2">
          <mxGeometry relative="1" as="geometry">
            <mxPoint x="216" y="146" as="sourcePoint" />
            <mxPoint x="325" y="150" as="targetPoint" />
          </mxGeometry>
        </mxCell>
        <mxCell id="K7nqZuAgdVPrMOTng4aN-5" style="rounded=0;orthogonalLoop=1;jettySize=auto;html=1;entryX=0;entryY=0.5;entryDx=0;entryDy=0;" edge="1" parent="1" source="Nm5P_6A96gV4nLZBbPhE-2" target="K7nqZuAgdVPrMOTng4aN-1">
          <mxGeometry relative="1" as="geometry" />
        </mxCell>
        <mxCell id="K7nqZuAgdVPrMOTng4aN-6" style="rounded=0;orthogonalLoop=1;jettySize=auto;html=1;entryX=0;entryY=0.5;entryDx=0;entryDy=0;" edge="1" parent="1" source="Nm5P_6A96gV4nLZBbPhE-2" target="K7nqZuAgdVPrMOTng4aN-2">
          <mxGeometry relative="1" as="geometry" />
        </mxCell>
        <mxCell id="Nm5P_6A96gV4nLZBbPhE-2" value="&lt;div&gt;Pick-up station employee&lt;/div&gt;" style="shape=umlActor;verticalLabelPosition=bottom;verticalAlign=top;html=1;outlineConnect=0;" vertex="1" parent="1">
          <mxGeometry x="180" y="470" width="30" height="60" as="geometry" />
        </mxCell>
      </root>
    </mxGraphModel>
  </diagram>
  <diagram id="emCwKHz_wVCeBEMVEgBy" name="B4">
    <mxGraphModel dx="989" dy="521" grid="1" gridSize="10" guides="1" tooltips="1" connect="1" arrows="1" fold="1" page="1" pageScale="1" pageWidth="827" pageHeight="1169" math="0" shadow="0">
      <root>
        <mxCell id="0" />
        <mxCell id="1" parent="0" />
        <mxCell id="zxFcLyx-sZHpW6JJWVxz-1" value="System" style="swimlane;whiteSpace=wrap;html=1;" vertex="1" parent="1">
          <mxGeometry x="300" y="170" width="430" height="480" as="geometry" />
        </mxCell>
        <mxCell id="X8Kye5mpWv2hEeMnI4fM-2" value="Create customer invoice" style="ellipse;whiteSpace=wrap;html=1;" vertex="1" parent="zxFcLyx-sZHpW6JJWVxz-1">
          <mxGeometry x="95" y="110" width="115" height="50" as="geometry" />
        </mxCell>
        <mxCell id="X8Kye5mpWv2hEeMnI4fM-4" value="Create collective invoice" style="ellipse;whiteSpace=wrap;html=1;" vertex="1" parent="zxFcLyx-sZHpW6JJWVxz-1">
          <mxGeometry x="300" y="110" width="115" height="50" as="geometry" />
        </mxCell>
        <mxCell id="X8Kye5mpWv2hEeMnI4fM-5" value="Send/hand over invoice" style="ellipse;whiteSpace=wrap;html=1;" vertex="1" parent="zxFcLyx-sZHpW6JJWVxz-1">
          <mxGeometry x="300" y="200" width="115" height="50" as="geometry" />
        </mxCell>
        <mxCell id="X8Kye5mpWv2hEeMnI4fM-6" value="Monitor incoming payments" style="ellipse;whiteSpace=wrap;html=1;" vertex="1" parent="zxFcLyx-sZHpW6JJWVxz-1">
          <mxGeometry x="95" y="230" width="115" height="50" as="geometry" />
        </mxCell>
        <mxCell id="X8Kye5mpWv2hEeMnI4fM-7" value="Carry out dunning" style="ellipse;whiteSpace=wrap;html=1;" vertex="1" parent="zxFcLyx-sZHpW6JJWVxz-1">
          <mxGeometry x="95" y="310" width="115" height="50" as="geometry" />
        </mxCell>
        <mxCell id="dX0BO6J6n08d_g_j2g_l-1" value="&amp;lt;&amp;lt;include&amp;gt;&amp;gt;" style="rounded=0;orthogonalLoop=1;jettySize=auto;html=1;entryX=1;entryY=0.5;entryDx=0;entryDy=0;dashed=1;exitX=0;exitY=0.5;exitDx=0;exitDy=0;" edge="1" parent="zxFcLyx-sZHpW6JJWVxz-1" source="X8Kye5mpWv2hEeMnI4fM-4" target="X8Kye5mpWv2hEeMnI4fM-2">
          <mxGeometry relative="1" as="geometry">
            <mxPoint x="470" y="290" as="sourcePoint" />
            <mxPoint x="502" y="190" as="targetPoint" />
          </mxGeometry>
        </mxCell>
        <mxCell id="dX0BO6J6n08d_g_j2g_l-2" value="&amp;lt;&amp;lt;include&amp;gt;&amp;gt;" style="rounded=0;orthogonalLoop=1;jettySize=auto;html=1;entryX=1;entryY=1;entryDx=0;entryDy=0;dashed=1;exitX=0.24;exitY=0.032;exitDx=0;exitDy=0;exitPerimeter=0;" edge="1" parent="zxFcLyx-sZHpW6JJWVxz-1" source="X8Kye5mpWv2hEeMnI4fM-5" target="X8Kye5mpWv2hEeMnI4fM-2">
          <mxGeometry relative="1" as="geometry">
            <mxPoint x="310" y="145" as="sourcePoint" />
            <mxPoint x="220" y="145" as="targetPoint" />
          </mxGeometry>
        </mxCell>
        <mxCell id="dX0BO6J6n08d_g_j2g_l-3" value="Send a written payment reminder" style="ellipse;whiteSpace=wrap;html=1;" vertex="1" parent="zxFcLyx-sZHpW6JJWVxz-1">
          <mxGeometry x="20" y="400" width="115" height="50" as="geometry" />
        </mxCell>
        <mxCell id="dX0BO6J6n08d_g_j2g_l-4" value="&amp;lt;&amp;lt;include&amp;gt;&amp;gt;" style="rounded=0;orthogonalLoop=1;jettySize=auto;html=1;entryX=0;entryY=1;entryDx=0;entryDy=0;dashed=1;exitX=0.5;exitY=0;exitDx=0;exitDy=0;" edge="1" parent="zxFcLyx-sZHpW6JJWVxz-1" source="dX0BO6J6n08d_g_j2g_l-3" target="X8Kye5mpWv2hEeMnI4fM-7">
          <mxGeometry relative="1" as="geometry">
            <mxPoint x="338" y="212" as="sourcePoint" />
            <mxPoint x="203" y="163" as="targetPoint" />
          </mxGeometry>
        </mxCell>
        <mxCell id="dX0BO6J6n08d_g_j2g_l-5" value="Create reminder with fees/interest" style="ellipse;whiteSpace=wrap;html=1;" vertex="1" parent="zxFcLyx-sZHpW6JJWVxz-1">
          <mxGeometry x="153.75" y="410" width="122.5" height="57" as="geometry" />
        </mxCell>
        <mxCell id="dX0BO6J6n08d_g_j2g_l-6" value="&amp;lt;&amp;lt;include&amp;gt;&amp;gt;" style="rounded=0;orthogonalLoop=1;jettySize=auto;html=1;entryX=0.5;entryY=1;entryDx=0;entryDy=0;dashed=1;exitX=0.5;exitY=0;exitDx=0;exitDy=0;" edge="1" parent="zxFcLyx-sZHpW6JJWVxz-1" source="dX0BO6J6n08d_g_j2g_l-5" target="X8Kye5mpWv2hEeMnI4fM-7">
          <mxGeometry relative="1" as="geometry">
            <mxPoint x="475.5" y="219" as="sourcePoint" />
            <mxPoint x="249.5" y="360" as="targetPoint" />
          </mxGeometry>
        </mxCell>
        <mxCell id="dX0BO6J6n08d_g_j2g_l-7" value="Threatening legal dunning proceedings" style="ellipse;whiteSpace=wrap;html=1;" vertex="1" parent="zxFcLyx-sZHpW6JJWVxz-1">
          <mxGeometry x="296.25" y="370" width="122.5" height="57" as="geometry" />
        </mxCell>
        <mxCell id="dX0BO6J6n08d_g_j2g_l-8" value="&amp;lt;&amp;lt;include&amp;gt;&amp;gt;" style="rounded=0;orthogonalLoop=1;jettySize=auto;html=1;entryX=0.967;entryY=0.794;entryDx=0;entryDy=0;dashed=1;exitX=0.025;exitY=0.37;exitDx=0;exitDy=0;entryPerimeter=0;exitPerimeter=0;" edge="1" parent="zxFcLyx-sZHpW6JJWVxz-1" source="dX0BO6J6n08d_g_j2g_l-7" target="X8Kye5mpWv2hEeMnI4fM-7">
          <mxGeometry relative="1" as="geometry">
            <mxPoint x="614.25" y="220" as="sourcePoint" />
            <mxPoint x="291.75" y="361" as="targetPoint" />
          </mxGeometry>
        </mxCell>
        <mxCell id="X8Kye5mpWv2hEeMnI4fM-3" style="rounded=0;orthogonalLoop=1;jettySize=auto;html=1;entryX=0;entryY=0.5;entryDx=0;entryDy=0;" edge="1" parent="1" source="X8Kye5mpWv2hEeMnI4fM-1" target="X8Kye5mpWv2hEeMnI4fM-2">
          <mxGeometry relative="1" as="geometry" />
        </mxCell>
        <mxCell id="X8Kye5mpWv2hEeMnI4fM-10" style="rounded=0;orthogonalLoop=1;jettySize=auto;html=1;entryX=0;entryY=0.5;entryDx=0;entryDy=0;" edge="1" parent="1" source="X8Kye5mpWv2hEeMnI4fM-1" target="X8Kye5mpWv2hEeMnI4fM-6">
          <mxGeometry relative="1" as="geometry" />
        </mxCell>
        <mxCell id="X8Kye5mpWv2hEeMnI4fM-11" style="rounded=0;orthogonalLoop=1;jettySize=auto;html=1;entryX=0;entryY=0.5;entryDx=0;entryDy=0;" edge="1" parent="1" source="X8Kye5mpWv2hEeMnI4fM-1" target="X8Kye5mpWv2hEeMnI4fM-7">
          <mxGeometry relative="1" as="geometry" />
        </mxCell>
        <mxCell id="X8Kye5mpWv2hEeMnI4fM-1" value="Accounting employee" style="shape=umlActor;verticalLabelPosition=bottom;verticalAlign=top;html=1;outlineConnect=0;" vertex="1" parent="1">
          <mxGeometry x="180" y="380" width="30" height="60" as="geometry" />
        </mxCell>
      </root>
    </mxGraphModel>
  </diagram>
</mxfile>
